<svg width="29" height="30" viewBox="0 0 29 30" fill="none" xmlns="http://www.w3.org/2000/svg">
<path d="M2.48006 11.7275C1.33006 12.77 0.560059 14.2925 0.560059 17.125V27.025C0.560059 27.8525 1.10756 29.08 2.62006 29.08H5.84506L5.84006 28.435C5.83256 27.64 5.50756 26.2425 4.40006 25.85V23.2525C5.86756 22.72 7.34256 21.49 7.69256 21.1C8.39506 20.4475 11.7376 20.8575 14.6401 21.6375L14.6426 27.0725C14.7001 27.88 15.3251 29.08 16.8026 29.08H19.7176L19.7576 28.4825C19.7701 28.34 19.8351 27.0475 19.1226 26.285C18.9401 26.09 18.7226 25.945 18.4801 25.855V21.6575C19.1626 21.04 21.1076 19.0925 21.6851 16.555C21.9626 15.31 22.9226 11.5825 23.0751 10.995C23.1526 10.9025 23.5651 10.52 25.0076 10.52C26.1226 10.52 27.0576 9.885 27.6376 8.7325C27.6551 8.6975 27.6576 8.6925 28.0326 7.765L28.2826 7.145L25.2551 6.065C25.1826 5.135 24.6151 3.8775 22.7751 3.5225C22.8826 3.1125 22.9601 2.545 22.9601 1.56V0.529999L22.0351 0.987499C21.9276 1.04 19.3301 2.3375 18.0351 3.985C18.0351 3.985 17.4676 4.6875 17.4476 4.715C17.3826 4.8 16.7926 5.6 16.7151 5.7125C16.6701 5.77 15.8626 6.9925 15.5151 7.655C15.3851 7.93 15.2226 8.1925 15.0301 8.4375C14.0551 9.695 12.6276 9.8625 12.0676 9.88C12.0726 9.96 12.0626 10.37 12.0626 10.37C11.8501 11.9825 11.0551 13.2775 10.5301 14.135C10.4426 14.275 10.2801 14.5425 10.1976 14.7L10.0376 17.1625L7.57506 16.2125L7.55256 16.2025L7.52756 16.1925C6.22006 15.625 5.85006 13.9025 5.67506 12.4675C5.67006 12.425 5.14756 9.5475 6.16756 9.4075C6.21256 9.4075 7.12256 8.995 7.07756 12.3275C7.26756 13.89 7.50256 14.785 8.03756 15.0175L8.87256 15.34L8.93256 14.4325C8.94256 14.2775 9.23006 13.8075 9.44006 13.4625C9.93756 12.6525 10.6176 11.545 10.7951 10.2025L10.8001 10.1175C10.8001 7.515 8.72256 5.4 6.16756 5.4C3.70006 5.4 1.84006 7.1225 1.84006 9.4075C1.84006 9.4075 1.81756 11.2825 2.48006 11.7275Z" fill="white"/>
</svg>
